<svg width="57" height="56" viewBox="0 0 57 56" fill="none" xmlns="http://www.w3.org/2000/svg">
<path d="M28.5 56C43.964 56 56.5 43.464 56.5 28C56.5 12.536 43.964 0 28.5 0C13.036 0 0.5 12.536 0.5 28C0.5 43.464 13.036 56 28.5 56Z" fill="white" fill-opacity="0.18"/>
<path d="M30 24.25V21.25C30 20.8522 30.158 20.4706 30.4393 20.1893C30.7207 19.908 31.1022 19.75 31.5 19.75H33V16H30C28.8065 16 27.6619 16.4741 26.818 17.318C25.9741 18.1619 25.5 19.3065 25.5 20.5V24.25H22.5V28H25.5V40H30V28H33L34.5 24.25H30Z" fill="white"/>
</svg>
