<svg width="1440" height="360" viewBox="0 0 1440 360" fill="none" xmlns="http://www.w3.org/2000/svg">
<g clip-path="url(#clip0_1613_36920)">
<rect width="1440" height="360" fill="white"/>
<rect width="1440" height="797.784" fill="url(#paint0_linear_1613_36920)"/>
<g style="mix-blend-mode:overlay">
<g style="mix-blend-mode:overlay">
<g style="mix-blend-mode:overlay">
<path d="M747.339 372.044L768.291 242.934L525.742 400.525L747.339 372.044Z" stroke="white" stroke-width="0.25" stroke-miterlimit="10"/>
</g>
<g style="mix-blend-mode:overlay">
<path d="M1221.96 61.2957L951.897 108.281L860.094 3.00781L1221.96 61.2957Z" stroke="white" stroke-width="0.25" stroke-miterlimit="10"/>
</g>
<g style="mix-blend-mode:overlay">
<path d="M1407 -177L1250.59 3.00887L1110.56 -35.314L1407 -177Z" stroke="white" stroke-width="0.25" stroke-miterlimit="10"/>
</g>
<g style="mix-blend-mode:overlay">
<path d="M768.291 242.933L860.094 3.00781L951.898 108.281L768.291 242.933Z" stroke="white" stroke-width="0.25" stroke-miterlimit="10"/>
</g>
<g style="mix-blend-mode:overlay">
<path d="M747.339 372.047L427.984 256.233L476.89 127.008L747.339 372.047Z" stroke="white" stroke-width="0.25" stroke-miterlimit="10"/>
</g>
<g style="mix-blend-mode:overlay">
<path d="M644.182 6.92188L768.292 242.933L476.891 127.004L644.182 6.92188Z" stroke="white" stroke-width="0.25" stroke-miterlimit="10"/>
</g>
<g style="mix-blend-mode:overlay">
<path d="M768.292 242.933L476.891 127.004L860.095 3.00781L768.292 242.933Z" stroke="white" stroke-width="0.25" stroke-miterlimit="10"/>
</g>
<g style="mix-blend-mode:overlay">
<path d="M747.34 372.043L768.292 242.933L951.898 108.281L747.34 372.043Z" stroke="white" stroke-width="0.25" stroke-miterlimit="10"/>
</g>
<g style="mix-blend-mode:overlay">
<path d="M212.364 661.543L-33 348.438L427.984 624.17L212.364 661.543Z" stroke="white" stroke-width="0.25" stroke-miterlimit="10"/>
</g>
<g style="mix-blend-mode:overlay">
<path d="M156.834 293.758L230.804 453.969L304.774 348.435L156.834 293.758Z" stroke="white" stroke-width="0.25" stroke-miterlimit="10"/>
</g>
<g style="mix-blend-mode:overlay">
<path d="M304.773 348.437L455.121 506.665L427.984 256.23L304.773 348.437Z" stroke="white" stroke-width="0.25" stroke-miterlimit="10"/>
</g>
<g style="mix-blend-mode:overlay">
<path d="M476.889 127.004L304.773 100.016L427.984 256.229L476.889 127.004Z" stroke="white" stroke-width="0.25" stroke-miterlimit="10"/>
</g>
<g style="mix-blend-mode:overlay">
<path d="M455.121 506.665L427.984 256.23L525.743 400.526L455.121 506.665Z" stroke="white" stroke-width="0.25" stroke-miterlimit="10"/>
</g>
<g style="mix-blend-mode:overlay">
<path d="M468.465 -39.2891L156.834 -16.7671L476.89 127.006L468.465 -39.2891Z" stroke="white" stroke-width="0.25" stroke-miterlimit="10"/>
</g>
<g style="mix-blend-mode:overlay">
<path d="M212.363 178.352L304.774 348.436V100.016L212.363 178.352Z" stroke="white" stroke-width="0.25" stroke-miterlimit="10"/>
</g>
<g style="mix-blend-mode:overlay">
<path d="M886.863 417.484L951.896 108.282L1052.02 -76.3711" stroke="white" stroke-width="0.25" stroke-miterlimit="10"/>
</g>
</g>
</g>
<g style="mix-blend-mode:overlay" opacity="0.8">
<g style="mix-blend-mode:overlay">
<path d="M640.047 10.0215C638.331 8.48733 638.184 5.84687 639.723 4.13529C641.261 2.4237 643.909 2.27759 645.625 3.81176C647.342 5.34592 647.488 7.98638 645.95 9.69796C644.411 11.4096 641.764 11.5557 640.047 10.0215Z" fill="white"/>
</g>
</g>
<g style="mix-blend-mode:overlay" opacity="0.8">
<g style="mix-blend-mode:overlay">
<path d="M473.656 129.655C472.191 127.881 472.453 125.251 474.232 123.79C476.011 122.329 478.648 122.59 480.113 124.364C481.578 126.138 481.317 128.768 479.538 130.229C477.759 131.691 475.121 131.43 473.656 129.655Z" fill="white"/>
</g>
</g>
<g style="mix-blend-mode:overlay" opacity="0.8">
<g style="mix-blend-mode:overlay">
<path d="M765.068 245.577C763.603 243.803 763.865 241.173 765.644 239.712C767.423 238.251 770.06 238.512 771.525 240.286C772.991 242.06 772.729 244.69 770.95 246.151C769.171 247.612 766.533 247.352 765.068 245.577Z" fill="white"/>
</g>
</g>
<g style="mix-blend-mode:overlay" opacity="0.8">
<g style="mix-blend-mode:overlay">
<path d="M1218.73 62.3312C1217.26 60.557 1217.52 57.927 1219.3 56.4659C1221.08 55.0048 1223.72 55.2657 1225.18 57.0399C1226.65 58.8141 1226.39 61.4441 1224.61 62.9052C1222.83 64.3663 1220.19 64.1054 1218.73 62.3312Z" fill="white"/>
</g>
</g>
<g style="mix-blend-mode:overlay" opacity="0.8">
<g style="mix-blend-mode:overlay">
<path d="M948.674 110.921C947.208 109.147 947.47 106.517 949.249 105.056C951.028 103.595 953.666 103.856 955.131 105.63C956.596 107.404 956.334 110.034 954.555 111.495C952.776 112.956 950.139 112.695 948.674 110.921Z" fill="white"/>
</g>
</g>
<g style="mix-blend-mode:overlay" opacity="0.8">
<g style="mix-blend-mode:overlay">
<path d="M1246.65 5.65154C1245.18 3.87734 1245.44 1.24734 1247.22 -0.213767C1249 -1.67488 1251.64 -1.41398 1253.11 0.360228C1254.57 2.13443 1254.31 4.76443 1252.53 6.22554C1250.75 7.68665 1248.11 7.42575 1246.65 5.65154Z" fill="white"/>
</g>
</g>
<g style="mix-blend-mode:overlay" opacity="0.8">
<g style="mix-blend-mode:overlay">
<path d="M301.551 103.421C300.085 101.647 300.347 99.0169 302.126 97.5558C303.905 96.0947 306.543 96.3556 308.008 98.1298C309.473 99.904 309.211 102.534 307.432 103.995C305.653 105.456 303.016 105.195 301.551 103.421Z" fill="white"/>
</g>
</g>
<g style="mix-blend-mode:overlay" opacity="0.8">
<g style="mix-blend-mode:overlay">
<path d="M301.551 351.085C300.085 349.311 300.347 346.681 302.126 345.22C303.905 343.759 306.543 344.02 308.008 345.794C309.473 347.568 309.211 350.198 307.432 351.659C305.653 353.12 303.016 352.859 301.551 351.085Z" fill="white"/>
</g>
</g>
<path style="mix-blend-mode:overlay" d="M644.178 6.92188L475.129 127.004L768.288 242.933L644.178 6.92188Z" fill="url(#paint1_linear_1613_36920)"/>
<path style="mix-blend-mode:overlay" d="M427.984 257.617L304.773 348.436L455.121 506.664L427.984 257.617Z" fill="url(#paint2_linear_1613_36920)"/>
<path style="mix-blend-mode:overlay" d="M478.719 128.438L768.289 242.936L747.337 372.046L478.719 128.438Z" fill="url(#paint3_linear_1613_36920)"/>
<path style="mix-blend-mode:overlay" d="M525.741 399.753L747.337 372.044L422.896 256.23L525.741 399.753Z" fill="url(#paint4_linear_1613_36920)"/>
<path style="mix-blend-mode:overlay" d="M212.361 178.351L304.772 348.434V100.766L212.361 178.351Z" fill="url(#paint5_linear_1613_36920)"/>
<path style="mix-blend-mode:overlay" d="M860.092 3.00781L1221.96 59.678L956.06 108.281L860.092 3.00781Z" fill="url(#paint6_linear_1613_36920)"/>
<path style="mix-blend-mode:overlay" d="M886.862 417.484L956.06 108.281L747.336 372.043L886.862 417.484Z" fill="url(#paint7_linear_1613_36920)"/>
<path style="mix-blend-mode:overlay" d="M1110.56 -35.314L1407 -177L1250.59 3.00887L1110.56 -35.314Z" fill="url(#paint8_linear_1613_36920)"/>
</g>
<defs>
<linearGradient id="paint0_linear_1613_36920" x1="1440" y1="398.892" x2="-596.421" y2="663.239" gradientUnits="userSpaceOnUse">
<stop offset="0.410718" stop-color="#0033CC"/>
<stop offset="1" stop-color="#000878"/>
</linearGradient>
<linearGradient id="paint1_linear_1613_36920" x1="475.129" y1="124.927" x2="768.288" y2="124.927" gradientUnits="userSpaceOnUse">
<stop stop-color="white" stop-opacity="0.5"/>
<stop offset="0.12" stop-color="white" stop-opacity="0.41"/>
<stop offset="0.4" stop-color="white" stop-opacity="0.24"/>
<stop offset="0.65" stop-color="white" stop-opacity="0.11"/>
<stop offset="0.86" stop-color="white" stop-opacity="0.03"/>
<stop offset="1" stop-color="white" stop-opacity="0"/>
</linearGradient>
<linearGradient id="paint2_linear_1613_36920" x1="304.773" y1="382.135" x2="455.121" y2="382.135" gradientUnits="userSpaceOnUse">
<stop stop-color="white" stop-opacity="0.5"/>
<stop offset="0.12" stop-color="white" stop-opacity="0.41"/>
<stop offset="0.4" stop-color="white" stop-opacity="0.24"/>
<stop offset="0.65" stop-color="white" stop-opacity="0.11"/>
<stop offset="0.86" stop-color="white" stop-opacity="0.03"/>
<stop offset="1" stop-color="white" stop-opacity="0"/>
</linearGradient>
<linearGradient id="paint3_linear_1613_36920" x1="478.719" y1="250.242" x2="768.289" y2="250.242" gradientUnits="userSpaceOnUse">
<stop stop-color="white" stop-opacity="0"/>
<stop offset="0.14" stop-color="white" stop-opacity="0.03"/>
<stop offset="0.35" stop-color="white" stop-opacity="0.11"/>
<stop offset="0.6" stop-color="white" stop-opacity="0.24"/>
<stop offset="0.88" stop-color="white" stop-opacity="0.41"/>
<stop offset="0.98" stop-color="white" stop-opacity="0.48"/>
<stop offset="1" stop-color="white" stop-opacity="0.5"/>
</linearGradient>
<linearGradient id="paint4_linear_1613_36920" x1="422.896" y1="327.992" x2="747.337" y2="327.992" gradientUnits="userSpaceOnUse">
<stop stop-color="white" stop-opacity="0"/>
<stop offset="0.14" stop-color="white" stop-opacity="0.03"/>
<stop offset="0.35" stop-color="white" stop-opacity="0.11"/>
<stop offset="0.6" stop-color="white" stop-opacity="0.24"/>
<stop offset="0.88" stop-color="white" stop-opacity="0.41"/>
<stop offset="0.98" stop-color="white" stop-opacity="0.48"/>
<stop offset="1" stop-color="white" stop-opacity="0.5"/>
</linearGradient>
<linearGradient id="paint5_linear_1613_36920" x1="212.361" y1="224.605" x2="304.772" y2="224.605" gradientUnits="userSpaceOnUse">
<stop stop-color="white" stop-opacity="0"/>
<stop offset="0.14" stop-color="white" stop-opacity="0.03"/>
<stop offset="0.35" stop-color="white" stop-opacity="0.11"/>
<stop offset="0.6" stop-color="white" stop-opacity="0.24"/>
<stop offset="0.88" stop-color="white" stop-opacity="0.41"/>
<stop offset="0.98" stop-color="white" stop-opacity="0.48"/>
<stop offset="1" stop-color="white" stop-opacity="0.5"/>
</linearGradient>
<linearGradient id="paint6_linear_1613_36920" x1="860.092" y1="55.6391" x2="1221.96" y2="55.6391" gradientUnits="userSpaceOnUse">
<stop stop-color="white" stop-opacity="0"/>
<stop offset="0.14" stop-color="white" stop-opacity="0.03"/>
<stop offset="0.35" stop-color="white" stop-opacity="0.11"/>
<stop offset="0.6" stop-color="white" stop-opacity="0.24"/>
<stop offset="0.88" stop-color="white" stop-opacity="0.41"/>
<stop offset="0.98" stop-color="white" stop-opacity="0.48"/>
<stop offset="1" stop-color="white" stop-opacity="0.5"/>
</linearGradient>
<linearGradient id="paint7_linear_1613_36920" x1="747.336" y1="262.877" x2="956.06" y2="262.877" gradientUnits="userSpaceOnUse">
<stop stop-color="white" stop-opacity="0.5"/>
<stop offset="0.02" stop-color="white" stop-opacity="0.48"/>
<stop offset="0.12" stop-color="white" stop-opacity="0.41"/>
<stop offset="0.4" stop-color="white" stop-opacity="0.24"/>
<stop offset="0.65" stop-color="white" stop-opacity="0.11"/>
<stop offset="0.86" stop-color="white" stop-opacity="0.03"/>
<stop offset="1" stop-color="white" stop-opacity="0"/>
</linearGradient>
<linearGradient id="paint8_linear_1613_36920" x1="1137.78" y1="-137.508" x2="1379.36" y2="-73.1859" gradientUnits="userSpaceOnUse">
<stop stop-color="white" stop-opacity="0.5"/>
<stop offset="0.02" stop-color="white" stop-opacity="0.48"/>
<stop offset="0.12" stop-color="white" stop-opacity="0.41"/>
<stop offset="0.4" stop-color="white" stop-opacity="0.24"/>
<stop offset="0.65" stop-color="white" stop-opacity="0.11"/>
<stop offset="0.86" stop-color="white" stop-opacity="0.03"/>
<stop offset="1" stop-color="white" stop-opacity="0"/>
</linearGradient>
<clipPath id="clip0_1613_36920">
<rect width="1440" height="360" fill="white"/>
</clipPath>
</defs>
</svg>
