<svg width="57" height="56" viewBox="0 0 57 56" fill="none" xmlns="http://www.w3.org/2000/svg">
<path d="M28.5 56C43.964 56 56.5 43.464 56.5 28C56.5 12.536 43.964 0 28.5 0C13.036 0 0.5 12.536 0.5 28C0.5 43.464 13.036 56 28.5 56Z" fill="white" fill-opacity="0.18"/>
<path d="M21.867 23.5H16.5V40H21.867V23.5Z" fill="white"/>
<path d="M36.486 23.6921C36.429 23.6741 36.375 23.6551 36.315 23.6381C36.255 23.6211 36.171 23.6081 36.098 23.5961C35.7812 23.5305 35.4585 23.497 35.135 23.4961C33.9966 23.5463 32.8849 23.8567 31.8852 24.4034C30.8855 24.9501 30.0244 25.7187 29.368 26.6501V23.4991H24V39.9991H29.367V30.9991C29.367 30.9991 33.423 25.3501 35.135 29.4991V39.9991H40.5V28.8641C40.4979 27.6793 40.1027 26.5286 39.3763 25.5926C38.6498 24.6566 37.6333 23.9881 36.486 23.6921Z" fill="white"/>
<path d="M19.125 21.25C20.5747 21.25 21.75 20.0747 21.75 18.625C21.75 17.1753 20.5747 16 19.125 16C17.6753 16 16.5 17.1753 16.5 18.625C16.5 20.0747 17.6753 21.25 19.125 21.25Z" fill="white"/>
</svg>
