<svg width="24" height="24" viewBox="0 0 24 24" fill="none" xmlns="http://www.w3.org/2000/svg">
<path fill-rule="evenodd" clip-rule="evenodd" d="M17.7452 15.441L24 21.646L21.6271 24L15.3391 17.762C13.7625 18.833 11.8584 19.46 9.80806 19.46C4.40002 19.46 0 15.096 0 9.73C0 4.365 4.40002 0 9.80806 0C15.2171 0 19.6171 4.365 19.6171 9.73C19.6171 11.862 18.9216 13.836 17.7452 15.441ZM9.80912 2.85156C5.9867 2.85156 2.87695 5.93656 2.87695 9.72856C2.87695 13.5206 5.98569 16.6056 9.80912 16.6056C13.6315 16.6056 16.7413 13.5206 16.7413 9.72856C16.7413 5.93656 13.6315 2.85156 9.80912 2.85156Z" fill="#0033CC"/>
</svg>
