<svg width="57" height="56" viewBox="0 0 57 56" fill="none" xmlns="http://www.w3.org/2000/svg">
<path d="M28.5 56C43.964 56 56.5 43.464 56.5 28C56.5 12.536 43.964 0 28.5 0C13.036 0 0.5 12.536 0.5 28C0.5 43.464 13.036 56 28.5 56Z" fill="white" fill-opacity="0.18"/>
<path d="M40.5 20.3077C39.5972 20.7015 38.6424 20.9632 37.665 21.0847C38.6953 20.4736 39.4656 19.5058 39.83 18.3647C38.8655 18.9367 37.8103 19.3395 36.71 19.5557C36.0353 18.8357 35.1596 18.3352 34.1968 18.1193C33.234 17.9033 32.2285 17.9819 31.3108 18.3447C30.3932 18.7075 29.6059 19.3379 29.0512 20.154C28.4964 20.97 28.1999 21.934 28.2 22.9207C28.1961 23.2978 28.2344 23.6741 28.314 24.0427C26.3566 23.9472 24.4413 23.4397 22.6935 22.5533C20.9457 21.6668 19.4046 20.4215 18.171 18.8987C17.5379 19.9812 17.3418 21.2645 17.6228 22.4866C17.9038 23.7087 18.6407 24.7775 19.683 25.4747C18.9039 25.453 18.1414 25.2441 17.46 24.8657V24.9197C17.4612 26.0557 17.8536 27.1565 18.5712 28.0371C19.2887 28.9177 20.2877 29.5242 21.4 29.7547C20.9791 29.8657 20.5453 29.9201 20.11 29.9167C19.7972 29.9223 19.4847 29.8942 19.178 29.8327C19.4962 30.8095 20.1095 31.6636 20.9333 32.2774C21.7571 32.8911 22.751 33.2344 23.778 33.2597C22.0367 34.6222 19.889 35.3615 17.678 35.3597C17.2843 35.3619 16.8908 35.3389 16.5 35.2907C18.7498 36.7405 21.3715 37.5074 24.048 37.4987C25.89 37.5111 27.716 37.1574 29.4202 36.4582C31.1243 35.759 32.6726 34.7283 33.975 33.4258C35.2775 32.1233 36.3083 30.575 37.0075 28.8709C37.7067 27.1668 38.0604 25.3407 38.048 23.4987C38.048 23.2817 38.041 23.0717 38.03 22.8627C39.0019 22.1684 39.839 21.3026 40.5 20.3077Z" fill="white"/>
</svg>
