<svg width="57" height="56" viewBox="0 0 57 56" fill="none" xmlns="http://www.w3.org/2000/svg">
<path fill-rule="evenodd" clip-rule="evenodd" d="M28.1367 0C43.6007 0 56.1367 12.536 56.1367 28C56.1367 43.464 43.6007 56 28.1367 56C12.6727 56 0.136719 43.464 0.136719 28C0.136719 12.536 12.6727 0 28.1367 0Z" fill="white" fill-opacity="0.18"/>
<path fill-rule="evenodd" clip-rule="evenodd" d="M39.805 18.3753C37.4761 17.7344 28.1365 17.7344 28.1365 17.7344C28.1365 17.7344 18.7968 17.7344 16.4678 18.3753C15.1826 18.7279 14.1706 19.767 13.8271 21.0865C13.2031 23.4779 13.2031 28.4677 13.2031 28.4677C13.2031 28.4677 13.2031 33.4573 13.8271 35.849C14.1706 37.1685 15.1826 38.2075 16.4678 38.5603C18.7968 39.201 28.1365 39.201 28.1365 39.201C28.1365 39.201 37.4761 39.201 39.805 38.5603C41.0901 38.2075 42.1022 37.1685 42.4456 35.849C43.0698 33.4573 43.0698 28.4677 43.0698 28.4677C43.0698 28.4677 43.0698 23.4779 42.4456 21.0865C42.1022 19.767 41.0901 18.7279 39.805 18.3753Z" fill="white"/>
<path opacity="0.5" fill-rule="evenodd" clip-rule="evenodd" d="M25.3359 24.2656L32.8026 28.9325L25.3359 33.599V24.2656Z" fill="#0033CC"/>
</svg>
