<svg width="368" height="48" viewBox="0 0 368 48" fill="none" xmlns="http://www.w3.org/2000/svg">
<path d="M23.2451 47.3133V43.0226L33.2564 29.8047H23.8084V24.7344H40.4503V29.0251L30.3106 42.2429H40.4513V47.3133H23.2451Z" fill="white"/>
<path d="M51.5005 47.3168C50.633 47.3773 49.7625 47.2525 48.947 46.9507C48.1315 46.6488 47.3896 46.1768 46.7706 45.566C46.1516 44.9553 45.6697 44.2197 45.3569 43.4083C45.0442 42.5969 44.9078 41.7282 44.9567 40.86V29.6758H42.5732V25.3851H44.9567V18.7109H50.5894V25.3851H54.5767V29.6758H50.5894V40.5102C50.5894 41.8106 51.1961 42.5468 52.54 42.5468H54.5767V47.3168H51.5005Z" fill="white"/>
<path d="M71.6104 47.0516V44.9715C70.8794 45.7233 70.0031 46.3185 69.0347 46.7208C68.0664 47.1231 67.0263 47.324 65.9777 47.3115C65.0013 47.3512 64.0267 47.1954 63.1114 46.8531C62.196 46.5108 61.3583 45.989 60.6475 45.3183C59.8362 44.4701 59.2124 43.4606 58.8168 42.3555C58.4211 41.2504 58.2624 40.0745 58.351 38.904V24.4766H63.9836V38.1283C63.9836 41.2055 65.9343 42.2451 67.711 42.2451C69.4878 42.2451 71.4819 41.2055 71.4819 38.1283V24.4727H77.1145V47.0516H71.6104Z" fill="white"/>
<path d="M94.8377 47.0512V44.9276C94.1556 45.7325 93.2951 46.3671 92.3246 46.7809C91.3542 47.1947 90.3005 47.3762 89.2475 47.3111C87.2057 47.3678 85.22 46.6388 83.6999 45.2745C81.4458 43.0214 81.4033 39.1211 81.4033 35.7405C81.4033 32.36 81.4468 28.5031 83.6999 26.254C85.2018 24.8874 87.1742 24.1548 89.2041 24.2095C90.2325 24.141 91.2629 24.3085 92.2167 24.6991C93.1704 25.0898 94.0223 25.6933 94.7072 26.4635V16.1953H100.34V47.0512H94.8377ZM90.8503 29.2828C87.4698 29.2828 87.037 32.0566 87.037 35.7405C87.037 39.4245 87.4707 42.2408 90.8503 42.2408C94.2299 42.2408 94.7042 39.4235 94.7042 35.7405C94.7042 32.0576 94.2309 29.2828 90.8513 29.2828H90.8503Z" fill="white"/>
<path d="M105.499 20.8763V16.2773H111.263V20.8714L105.499 20.8763ZM105.586 47.3121V24.7332H111.219V47.3121H105.586Z" fill="white"/>
<path d="M129.42 47.0516V44.9715C128.689 45.7233 127.813 46.3185 126.844 46.7208C125.876 47.1231 124.836 47.324 123.787 47.3115C122.811 47.3513 121.836 47.1955 120.921 46.8532C120.005 46.5109 119.168 45.989 118.457 45.3183C117.646 44.4701 117.022 43.4607 116.626 42.3556C116.23 41.2505 116.071 40.0745 116.16 38.904V24.4766H121.792V38.1283C121.792 41.2055 123.743 42.2451 125.52 42.2451C127.296 42.2451 129.289 41.2055 129.289 38.1283V24.4727H134.922V47.0516H129.42Z" fill="white"/>
<path d="M163.353 47.3077V33.656C163.353 30.5788 161.402 29.5392 159.625 29.5392C159.106 29.5177 158.587 29.6078 158.105 29.8036C157.624 29.9994 157.189 30.2963 156.832 30.6742C156.475 31.0521 156.202 31.5023 156.034 31.9943C155.865 32.4863 155.804 33.0088 155.854 33.5265V47.3077H150.222V33.656C150.222 30.5788 148.271 29.5392 146.494 29.5392C144.718 29.5392 142.723 30.5788 142.723 33.656V47.3077H137.091V24.7287H142.595V26.8089C143.332 26.065 144.209 25.475 145.176 25.0733C146.143 24.6716 147.181 24.4661 148.228 24.4689C149.383 24.4138 150.534 24.6463 151.578 25.1454C152.622 25.6445 153.525 26.3946 154.208 27.3286C155.055 26.3833 156.099 25.6367 157.268 25.1423C158.437 24.6479 159.7 24.4179 160.968 24.4689C163.005 24.3902 164.994 25.1047 166.515 26.462C167.35 27.3006 168.001 28.3042 168.426 29.4087C168.852 30.5131 169.042 31.6941 168.985 32.8763V47.3037L163.353 47.3077Z" fill="white"/>
<path d="M19.3572 24.2718C19.0979 24.2719 18.8422 24.3328 18.6107 24.4497C18.3792 24.5666 18.1783 24.7362 18.0242 24.9448L12.5665 22.165C12.7713 21.6534 12.8335 21.0959 12.7465 20.5517C12.6595 20.0075 12.4265 19.4972 12.0724 19.075L15.5478 15.5995C16.0468 15.9976 16.6793 16.1895 17.3153 16.1358C17.9514 16.0822 18.5428 15.7872 18.9682 15.3112C19.3935 14.8353 19.6205 14.2146 19.6027 13.5765C19.5848 12.9385 19.3233 12.3315 18.872 11.8801C18.4206 11.4288 17.8136 11.1673 17.1755 11.1494C16.5375 11.1315 15.9168 11.3586 15.4408 11.7839C14.9649 12.2093 14.6698 12.8007 14.6162 13.4367C14.5626 14.0728 14.7545 14.7052 15.1525 15.2043L11.6771 18.6827C11.3 18.371 10.8535 18.1547 10.3752 18.052C9.89698 17.9493 9.40101 17.9631 8.92924 18.0924C8.45746 18.2217 8.02373 18.4627 7.66467 18.7949C7.30561 19.1271 7.03177 19.5409 6.86628 20.0012C6.70079 20.4615 6.6485 20.9549 6.71384 21.4397C6.77917 21.9245 6.96021 22.3865 7.24166 22.7866C7.52311 23.1867 7.89671 23.5131 8.33091 23.7385C8.76511 23.9638 9.24715 24.0813 9.73632 24.0811C9.84526 24.0809 9.95412 24.075 10.0624 24.0633L10.5743 26.6118C9.97631 26.8031 9.47253 27.213 9.16359 27.7596C8.85465 28.3062 8.76331 28.9492 8.90781 29.5602C9.05231 30.1712 9.422 30.7052 9.94305 31.0555C10.4641 31.4058 11.0981 31.5466 11.7185 31.4498C12.3388 31.353 12.8998 31.0257 13.2893 30.5333C13.6789 30.0409 13.8683 29.4197 13.8198 28.7937C13.7712 28.1677 13.4883 27.5831 13.0276 27.1567C12.5668 26.7302 11.9621 26.4933 11.3342 26.4932C11.2611 26.4932 11.189 26.4932 11.1178 26.5041L10.6059 23.9546C11.314 23.7431 11.9213 23.2822 12.3155 22.6571L17.7663 25.4369C17.6613 25.7713 17.6647 26.1303 17.7759 26.4627C17.8871 26.795 18.1005 27.0838 18.3856 27.2877C18.6707 27.4916 19.0129 27.6002 19.3634 27.598C19.7139 27.5958 20.0547 27.483 20.3372 27.2755C20.6198 27.0681 20.8296 26.7768 20.9366 26.443C21.0437 26.1093 21.0426 25.7503 20.9335 25.4172C20.8244 25.0841 20.6129 24.794 20.3291 24.5883C20.0453 24.3826 19.7038 24.2719 19.3533 24.2718H19.3572ZM15.1614 13.6508C15.1595 13.1879 15.3226 12.7395 15.6214 12.3859C15.9201 12.0323 16.335 11.7967 16.7917 11.7213C17.2485 11.6458 17.7171 11.7355 18.1137 11.9743C18.5103 12.213 18.8089 12.5852 18.9559 13.0242C19.103 13.4631 19.0889 13.9401 18.9162 14.3695C18.7435 14.799 18.4235 15.153 18.0135 15.3679C17.6035 15.5829 17.1304 15.6448 16.6789 15.5425C16.2275 15.4403 15.8272 15.1806 15.5498 14.81C15.2989 14.4755 15.1627 14.069 15.1614 13.6508ZM11.2275 27.0525C11.2631 27.0525 11.2976 27.0476 11.3332 27.0476C11.9252 27.0339 12.4988 27.2541 12.9295 27.6605C13.3602 28.0669 13.6134 28.6267 13.6341 29.2185C13.6547 29.8103 13.4413 30.3864 13.04 30.8219C12.6387 31.2574 12.0819 31.5171 11.4904 31.5447C10.8989 31.5724 10.3203 31.3657 9.88012 30.9695C9.43996 30.5734 9.17371 30.0197 9.13911 29.4285C9.10452 28.8374 9.30436 28.2564 9.6953 27.8116C10.0862 27.3668 10.6368 27.0941 11.2275 27.0525ZM10.4952 23.4081C10.3187 23.4646 10.1364 23.5011 9.95175 23.5168C9.8806 23.5228 9.80846 23.5277 9.73534 23.5277C9.33687 23.5289 8.94394 23.4345 8.58942 23.2526C8.23491 23.0707 7.92913 22.8065 7.69771 22.4821C7.46628 22.1578 7.31594 21.7827 7.25927 21.3883C7.2026 20.9939 7.24126 20.5916 7.372 20.2152C7.50273 19.8388 7.72175 19.4992 8.01071 19.2248C8.29967 18.9505 8.65016 18.7493 9.03282 18.6382C9.41549 18.5272 9.8192 18.5094 10.2101 18.5864C10.6011 18.6634 10.9679 18.833 11.2799 19.0809C11.4255 19.1958 11.5581 19.3263 11.6751 19.4702C11.9767 19.8448 12.1636 20.2984 12.2134 20.7767C12.2632 21.2549 12.1737 21.7374 11.9558 22.166C11.8071 22.4599 11.6014 22.7213 11.3506 22.9349C11.0999 23.1485 10.8091 23.3101 10.4952 23.4101V23.4081Z" fill="white"/>
<path d="M3.82619 27.5997C4.7447 27.5997 5.4893 26.8551 5.4893 25.9365C5.4893 25.018 4.7447 24.2734 3.82619 24.2734C2.90768 24.2734 2.16309 25.018 2.16309 25.9365C2.16309 26.8551 2.90768 27.5997 3.82619 27.5997Z" fill="white"/>
<path d="M2.65822 16.8028C3.57673 16.8028 4.32133 16.0582 4.32133 15.1397C4.32133 14.2212 3.57673 13.4766 2.65822 13.4766C1.73972 13.4766 0.995117 14.2212 0.995117 15.1397C0.995117 16.0582 1.73972 16.8028 2.65822 16.8028Z" fill="white"/>
<path d="M6.8488 23.0225L5.30762 24.375L5.67328 24.7917L7.21445 23.4392L6.8488 23.0225Z" fill="white"/>
<path d="M4.49835 16.312L4.14355 16.7383L6.77056 18.9246L7.12536 18.4983L4.49835 16.312Z" fill="white"/>
<path d="M250.602 46.2672C250.075 46.642 249.481 46.9104 248.851 47.0575C248.136 47.2358 247.401 47.3243 246.664 47.321C244.992 47.4277 243.343 46.8834 242.062 45.802C241.492 45.2148 241.052 44.5137 240.772 43.7446C240.491 42.9755 240.377 42.1559 240.435 41.3394V34.4899H237.864V30.7709H240.436V26.7109H245.27V30.7709H249.423V34.4899H245.27V41.2728C245.232 41.8653 245.427 42.4493 245.813 42.9001C246.014 43.0982 246.255 43.2516 246.519 43.3504C246.783 43.4492 247.066 43.4913 247.347 43.4737C248.049 43.4938 248.738 43.2751 249.3 42.8534L250.602 46.2672Z" fill="white"/>
<path d="M269.041 40.1003H256.429C256.63 41.094 257.207 41.9715 258.04 42.5488C258.974 43.1723 260.08 43.4854 261.202 43.4435C261.988 43.4574 262.771 43.326 263.51 43.0558C264.211 42.7785 264.849 42.3622 265.385 41.8321L267.957 44.6216C266.387 46.4189 264.093 47.3176 261.076 47.3176C259.349 47.3521 257.639 46.9748 256.087 46.2171C254.703 45.5414 253.542 44.4833 252.741 43.1682C251.945 41.8286 251.537 40.2943 251.563 38.7364C251.541 37.1861 251.943 35.6593 252.725 34.3205C253.485 33.0227 254.59 31.9608 255.917 31.2527C257.303 30.5376 258.838 30.1606 260.397 30.1525C261.957 30.1444 263.496 30.5054 264.889 31.206C266.195 31.8938 267.277 32.9428 268.003 34.2281C268.779 35.6251 269.17 37.2034 269.135 38.801C269.135 38.8626 269.104 39.2958 269.041 40.1003ZM257.729 34.739C256.971 35.3843 256.484 36.2916 256.365 37.28H264.578C264.451 36.2982 263.965 35.3981 263.214 34.754C262.45 34.1168 261.481 33.7806 260.487 33.8086C259.486 33.7771 258.507 34.1075 257.73 34.739H257.729Z" fill="white"/>
<path d="M275.627 46.2208C274.259 45.5314 273.111 44.4741 272.311 43.1679C271.53 41.8217 271.118 40.2927 271.118 38.7361C271.118 37.1795 271.53 35.6505 272.311 34.3043C273.111 32.9981 274.26 31.9409 275.628 31.2514C277.111 30.5019 278.754 30.1242 280.415 30.1509C282.019 30.114 283.604 30.4931 285.017 31.2514C286.297 31.9502 287.307 33.0575 287.884 34.3968L284.134 36.4109C283.792 35.712 283.257 35.1253 282.593 34.7191C281.929 34.313 281.163 34.1043 280.385 34.1174C279.806 34.0996 279.23 34.2003 278.691 34.4135C278.153 34.6267 277.664 34.9478 277.254 35.3571C276.453 36.301 276.013 37.4989 276.013 38.7371C276.013 39.9752 276.453 41.1731 277.254 42.1171C277.664 42.5264 278.153 42.8476 278.691 43.0608C279.229 43.274 279.806 43.3747 280.385 43.3568C281.164 43.3753 281.932 43.1688 282.597 42.762C283.262 42.3553 283.796 41.7655 284.134 41.0633L287.884 43.1082C287.29 44.4247 286.284 45.5122 285.017 46.2069C283.607 46.9749 282.021 47.3595 280.415 47.3223C278.753 47.349 277.11 46.9709 275.627 46.2208Z" fill="white"/>
<path d="M305.687 32.0112C306.364 32.7526 306.881 33.6243 307.209 34.5728C307.537 35.5213 307.667 36.5268 307.593 37.5275V47.0711H302.759V38.2691C302.841 37.2098 302.532 36.157 301.891 35.3097C301.569 34.9733 301.178 34.7115 300.744 34.5428C300.31 34.3741 299.845 34.3027 299.381 34.3334C298.843 34.3078 298.306 34.3952 297.804 34.5901C297.303 34.7849 296.847 35.0829 296.468 35.4647C295.68 36.3996 295.289 37.6055 295.378 38.8249V47.076H290.544V24.0781H295.378V32.1354C296.038 31.4826 296.831 30.9803 297.703 30.6632C298.655 30.3143 299.663 30.1409 300.678 30.1512C301.595 30.1103 302.511 30.2538 303.371 30.5733C304.232 30.8928 305.019 31.3818 305.687 32.0112Z" fill="white"/>
<path d="M324.639 31.9964C325.369 32.7175 325.933 33.5892 326.292 34.5507C326.65 35.5122 326.795 36.5403 326.716 37.5634V47.0781H322.191V44.9974C321.282 46.5469 319.588 47.3217 317.108 47.3217C315.964 47.349 314.827 47.1268 313.777 46.6705C312.901 46.291 312.153 45.667 311.623 44.8732C311.123 44.0977 310.865 43.1918 310.879 42.2696C310.852 41.5637 310.997 40.8618 311.302 40.2246C311.607 39.5875 312.063 39.0344 312.63 38.6132C313.797 37.7251 315.6 37.2811 318.038 37.2811H321.875C321.903 36.83 321.832 36.3783 321.666 35.9579C321.5 35.5375 321.244 35.1587 320.915 34.8485C320.09 34.2213 319.065 33.9182 318.032 33.9965C317.142 33.9967 316.259 34.1379 315.413 34.4151C314.623 34.6585 313.882 35.0417 313.226 35.5463L311.491 32.1664C312.487 31.4849 313.593 30.9805 314.76 30.6752C316.037 30.3232 317.356 30.146 318.68 30.1483C320.827 30.0046 322.95 30.6632 324.639 31.9964ZM320.517 43.4943C321.159 43.1113 321.642 42.512 321.881 41.8043V40.0994H318.565C316.581 40.0994 315.589 40.7502 315.589 42.0519C315.58 42.3383 315.642 42.6227 315.769 42.8795C315.896 43.1364 316.085 43.3579 316.318 43.5242C316.908 43.9163 317.61 44.1067 318.317 44.0669C319.089 44.0813 319.85 43.8832 320.516 43.4943H320.517Z" fill="white"/>
<path d="M345.172 31.2218C346.431 31.9235 347.467 32.9652 348.162 34.2281C348.875 35.6242 349.247 37.1696 349.247 38.7374C349.247 40.3051 348.875 41.8505 348.162 43.2467C347.467 44.5096 346.431 45.5514 345.172 46.2529C343.879 46.9715 342.421 47.3403 340.942 47.3226C339.961 47.3867 338.978 47.2244 338.07 46.8482C337.162 46.4721 336.353 45.8922 335.705 45.1534V47.076H331.087V24.0781H335.921V32.1643C336.562 31.4846 337.343 30.9524 338.21 30.6046C339.077 30.2568 340.009 30.1017 340.942 30.1502C342.421 30.1331 343.879 30.5025 345.172 31.2218ZM343.158 42.0995C343.929 41.1487 344.351 39.9614 344.351 38.7369C344.351 37.5123 343.929 36.325 343.158 35.3743C342.345 34.5702 341.248 34.1192 340.105 34.1192C338.962 34.1192 337.865 34.5702 337.053 35.3743C336.281 36.3249 335.859 37.5123 335.859 38.7369C335.859 39.9615 336.281 41.1488 337.053 42.0995C337.865 42.9033 338.962 43.3542 340.105 43.3542C341.248 43.3542 342.345 42.9033 343.158 42.0995Z" fill="white"/>
<path d="M355.739 46.2208C354.371 45.5315 353.223 44.4742 352.423 43.1679C351.641 41.8217 351.229 40.2927 351.229 38.7361C351.229 37.1795 351.641 35.6505 352.423 34.3043C353.223 32.9983 354.371 31.9411 355.738 31.2514C357.222 30.5019 358.865 30.1242 360.527 30.1509C362.13 30.114 363.715 30.4931 365.129 31.2514C366.409 31.9501 367.418 33.0575 367.996 34.3968L364.246 36.4109C363.903 35.712 363.368 35.1253 362.704 34.7191C362.04 34.313 361.274 34.1043 360.496 34.1174C359.917 34.0995 359.341 34.2002 358.802 34.4134C358.264 34.6266 357.775 34.9478 357.365 35.3571C356.564 36.301 356.124 37.4989 356.124 38.7371C356.124 39.9753 356.564 41.1732 357.365 42.1171C357.775 42.5265 358.264 42.8477 358.802 43.0609C359.341 43.2741 359.917 43.3748 360.496 43.3567C361.275 43.3752 362.043 43.1688 362.708 42.762C363.373 42.3553 363.907 41.7655 364.246 41.0633L367.996 43.1082C367.401 44.4247 366.395 45.5122 365.129 46.2069C363.719 46.9749 362.132 47.3595 360.527 47.3223C358.865 47.3487 357.222 46.9707 355.739 46.2208Z" fill="white"/>
<path d="M214.628 15.1559C216.028 15.1559 217.163 14.021 217.163 12.6209C217.163 11.2209 216.028 10.0859 214.628 10.0859C213.228 10.0859 212.093 11.2209 212.093 12.6209C212.093 14.021 213.228 15.1559 214.628 15.1559Z" fill="white"/>
<path d="M211.671 20.2809C213.071 20.2809 214.206 19.146 214.206 17.7459C214.206 16.3459 213.071 15.2109 211.671 15.2109C210.271 15.2109 209.136 16.3459 209.136 17.7459C209.136 19.146 210.271 20.2809 211.671 20.2809Z" fill="white"/>
<path d="M214.628 25.402C216.028 25.402 217.163 24.2671 217.163 22.867C217.163 21.467 216.028 20.332 214.628 20.332C213.228 20.332 212.093 21.467 212.093 22.867C212.093 24.2671 213.228 25.402 214.628 25.402Z" fill="white"/>
<path d="M220.542 25.402C221.942 25.402 223.077 24.2671 223.077 22.867C223.077 21.467 221.942 20.332 220.542 20.332C219.142 20.332 218.007 21.467 218.007 22.867C218.007 24.2671 219.142 25.402 220.542 25.402Z" fill="white"/>
<path d="M223.499 20.2809C224.899 20.2809 226.034 19.146 226.034 17.7459C226.034 16.3459 224.899 15.2109 223.499 15.2109C222.099 15.2109 220.964 16.3459 220.964 17.7459C220.964 19.146 222.099 20.2809 223.499 20.2809Z" fill="white"/>
<path d="M220.542 15.1559C221.942 15.1559 223.077 14.021 223.077 12.6209C223.077 11.2209 221.942 10.0859 220.542 10.0859C219.142 10.0859 218.007 11.2209 218.007 12.6209C218.007 14.021 219.142 15.1559 220.542 15.1559Z" fill="white"/>
<path d="M217.586 8.95606C218.426 8.95606 219.107 8.27509 219.107 7.43506C219.107 6.59504 218.426 5.91406 217.586 5.91406C216.746 5.91406 216.065 6.59504 216.065 7.43506C216.065 8.27509 216.746 8.95606 217.586 8.95606Z" fill="white"/>
<path d="M208.657 14.1123C209.497 14.1123 210.178 13.4313 210.178 12.5913C210.178 11.7513 209.497 11.0703 208.657 11.0703C207.817 11.0703 207.136 11.7513 207.136 12.5913C207.136 13.4313 207.817 14.1123 208.657 14.1123Z" fill="white"/>
<path d="M208.657 24.4209C209.497 24.4209 210.178 23.7399 210.178 22.8999C210.178 22.0599 209.497 21.3789 208.657 21.3789C207.817 21.3789 207.136 22.0599 207.136 22.8999C207.136 23.7399 207.817 24.4209 208.657 24.4209Z" fill="white"/>
<path d="M217.586 29.5733C218.426 29.5733 219.107 28.8923 219.107 28.0523C219.107 27.2122 218.426 26.5312 217.586 26.5312C216.746 26.5312 216.065 27.2122 216.065 28.0523C216.065 28.8923 216.746 29.5733 217.586 29.5733Z" fill="white"/>
<path d="M226.512 24.4209C227.352 24.4209 228.033 23.7399 228.033 22.8999C228.033 22.0599 227.352 21.3789 226.512 21.3789C225.672 21.3789 224.991 22.0599 224.991 22.8999C224.991 23.7399 225.672 24.4209 226.512 24.4209Z" fill="white"/>
<path d="M226.512 14.1123C227.352 14.1123 228.033 13.4313 228.033 12.5913C228.033 11.7513 227.352 11.0703 226.512 11.0703C225.672 11.0703 224.991 11.7513 224.991 12.5913C224.991 13.4313 225.672 14.1123 226.512 14.1123Z" fill="white"/>
<path d="M217.586 2.197C218.192 2.197 218.684 1.70518 218.684 1.0985C218.684 0.491815 218.192 0 217.586 0C216.979 0 216.487 0.491815 216.487 1.0985C216.487 1.70518 216.979 2.197 217.586 2.197Z" fill="white"/>
<path d="M203.168 10.5212C203.775 10.5212 204.266 10.0294 204.266 9.42272C204.266 8.81603 203.775 8.32422 203.168 8.32422C202.561 8.32422 202.069 8.81603 202.069 9.42272C202.069 10.0294 202.561 10.5212 203.168 10.5212Z" fill="white"/>
<path d="M203.168 27.1658C203.775 27.1658 204.266 26.6739 204.266 26.0673C204.266 25.4606 203.775 24.9688 203.168 24.9688C202.561 24.9688 202.069 25.4606 202.069 26.0673C202.069 26.6739 202.561 27.1658 203.168 27.1658Z" fill="white"/>
<path d="M217.586 35.49C218.192 35.49 218.684 34.9982 218.684 34.3915C218.684 33.7848 218.192 33.293 217.586 33.293C216.979 33.293 216.487 33.7848 216.487 34.3915C216.487 34.9982 216.979 35.49 217.586 35.49Z" fill="white"/>
<path d="M232.002 27.1658C232.609 27.1658 233.1 26.6739 233.1 26.0673C233.1 25.4606 232.609 24.9688 232.002 24.9688C231.395 24.9688 230.903 25.4606 230.903 26.0673C230.903 26.6739 231.395 27.1658 232.002 27.1658Z" fill="white"/>
<path d="M232.002 10.5212C232.609 10.5212 233.1 10.0294 233.1 9.42272C233.1 8.81603 232.609 8.32422 232.002 8.32422C231.395 8.32422 230.903 8.81603 230.903 9.42272C230.903 10.0294 231.395 10.5212 232.002 10.5212Z" fill="white"/>
<path d="M208.67 3.06397C209.09 3.06397 209.43 2.72348 209.43 2.30347C209.43 1.88346 209.09 1.54297 208.67 1.54297C208.25 1.54297 207.909 1.88346 207.909 2.30347C207.909 2.72348 208.25 3.06397 208.67 3.06397Z" fill="white"/>
<path d="M199.756 18.5054C200.176 18.5054 200.516 18.1649 200.516 17.7449C200.516 17.3249 200.176 16.9844 199.756 16.9844C199.336 16.9844 198.995 17.3249 198.995 17.7449C198.995 18.1649 199.336 18.5054 199.756 18.5054Z" fill="white"/>
<path d="M208.67 33.9468C209.09 33.9468 209.43 33.6063 209.43 33.1863C209.43 32.7663 209.09 32.4258 208.67 32.4258C208.25 32.4258 207.909 32.7663 207.909 33.1863C207.909 33.6063 208.25 33.9468 208.67 33.9468Z" fill="white"/>
<path d="M226.502 33.9468C226.922 33.9468 227.262 33.6063 227.262 33.1863C227.262 32.7663 226.922 32.4258 226.502 32.4258C226.082 32.4258 225.741 32.7663 225.741 33.1863C225.741 33.6063 226.082 33.9468 226.502 33.9468Z" fill="white"/>
<path d="M235.416 18.5054C235.836 18.5054 236.176 18.1649 236.176 17.7449C236.176 17.3249 235.836 16.9844 235.416 16.9844C234.996 16.9844 234.655 17.3249 234.655 17.7449C234.655 18.1649 234.996 18.5054 235.416 18.5054Z" fill="white"/>
<path d="M226.502 3.06397C226.922 3.06397 227.262 2.72348 227.262 2.30347C227.262 1.88346 226.922 1.54297 226.502 1.54297C226.082 1.54297 225.741 1.88346 225.741 2.30347C225.741 2.72348 226.082 3.06397 226.502 3.06397Z" fill="white"/>
<path d="M210.952 7.52328C211.652 7.52328 212.22 6.9558 212.22 6.25578C212.22 5.55576 211.652 4.98828 210.952 4.98828C210.252 4.98828 209.685 5.55576 209.685 6.25578C209.685 6.9558 210.252 7.52328 210.952 7.52328Z" fill="white"/>
<path d="M204.317 19.0116C205.017 19.0116 205.585 18.4441 205.585 17.7441C205.585 17.044 205.017 16.4766 204.317 16.4766C203.617 16.4766 203.05 17.044 203.05 17.7441C203.05 18.4441 203.617 19.0116 204.317 19.0116Z" fill="white"/>
<path d="M210.952 30.5037C211.652 30.5037 212.22 29.9363 212.22 29.2362C212.22 28.5362 211.652 27.9688 210.952 27.9688C210.252 27.9688 209.685 28.5362 209.685 29.2362C209.685 29.9363 210.252 30.5037 210.952 30.5037Z" fill="white"/>
<path d="M224.218 30.5037C224.918 30.5037 225.485 29.9363 225.485 29.2362C225.485 28.5362 224.918 27.9688 224.218 27.9688C223.518 27.9688 222.95 28.5362 222.95 29.2362C222.95 29.9363 223.518 30.5037 224.218 30.5037Z" fill="white"/>
<path d="M230.852 19.0116C231.552 19.0116 232.12 18.4441 232.12 17.7441C232.12 17.044 231.552 16.4766 230.852 16.4766C230.152 16.4766 229.585 17.044 229.585 17.7441C229.585 18.4441 230.152 19.0116 230.852 19.0116Z" fill="white"/>
<path d="M224.218 7.52328C224.918 7.52328 225.485 6.9558 225.485 6.25578C225.485 5.55576 224.918 4.98828 224.218 4.98828C223.518 4.98828 222.95 5.55576 222.95 6.25578C222.95 6.9558 223.518 7.52328 224.218 7.52328Z" fill="white"/>
</svg>
