<svg id="Layer_1" data-name="Layer 1" xmlns="http://www.w3.org/2000/svg" viewBox="0 0 1080 349.91"><defs><style>.cls-1{fill:#333;}.cls-2,.cls-3{fill:#0033cb;}.cls-3{fill-rule:evenodd;}</style></defs><title>B_openbusinesscouncil</title><path id="Path_331" data-name="Path 331" class="cls-1" d="M174.8,234.85a43.11,43.11,0,0,1,.07-60.2c7.57-7.45,18.22-11.89,30.62-11.89a46.41,46.41,0,0,1,16.85,3.13,35.17,35.17,0,0,1,13.26,8.69l1.43,1.5-9.79,14.5L225,188.36a26.9,26.9,0,0,0-8.68-5.75,27.51,27.51,0,0,0-10.2-2.09,23.25,23.25,0,0,0-16.78,6.73,25.89,25.89,0,0,0,.12,34.81,23.6,23.6,0,0,0,17.11,6.85,28.39,28.39,0,0,0,11.37-2.54,29.73,29.73,0,0,0,9.86-6.73l2.48-2.61,8.43,15.42-1.31,1.36a39.85,39.85,0,0,1-14.23,9.41,47,47,0,0,1-17.64,3.46C193,246.67,182.31,242.23,174.8,234.85Zm73-.32a41.58,41.58,0,0,1-12.41-30,40.84,40.84,0,0,1,12.41-29.71,45.11,45.11,0,0,1,61.38-.06,42.09,42.09,0,0,1,.16,59.52l-.16.16A44.75,44.75,0,0,1,247.81,234.53Zm14.24-47.15a24.3,24.3,0,0,0-6.67,17.17,24.74,24.74,0,0,0,6.67,17.37,23,23,0,0,0,32.56.49l.48-.49a24.77,24.77,0,0,0,6.66-17.37,24.24,24.24,0,0,0-6.66-17.11,23.26,23.26,0,0,0-32.89-.22l-.15.16Zm74.37,51.46c-4.76-5.23-7.18-13-7.18-23.58V164.52H349V212c0,4.76.46,8.95,2.22,11.82,1.57,2.61,4.38,4.18,9.21,4.18a19.6,19.6,0,0,0,15.41-7c4.18-4.77,6.4-11.56,6.4-18.68V164.52h19.59v80.39H382.52v-9.47a34.51,34.51,0,0,1-7.18,6.07,32.8,32.8,0,0,1-17.76,5.16c-9.21,0-16.32-2.54-21.16-7.83Zm91.69,6.07H411.06V164.52h19.27v8.88a36.86,36.86,0,0,1,3.53-3.65,30.05,30.05,0,0,1,20.05-7c9.6,0,16.71,2.68,21.42,8.1s6.92,13.12,6.92,23.31v50.74H462.53V197.43c0-4.83-.46-9.14-2.16-12-1.56-2.61-4.37-4.18-9.27-4.18a18.31,18.31,0,0,0-14.56,6.53c-3.79,4.57-5.75,11-5.75,18.41v38.73Zm72-10.06c-7.71-7.51-12.15-18.09-12.15-30.17a41.45,41.45,0,0,1,12.21-30c7.58-7.44,18.22-11.88,30.63-11.88a46.49,46.49,0,0,1,16.85,3.13,35.14,35.14,0,0,1,13.25,8.69l1.44,1.5-9.8,14.5-2.28-2.22a26.67,26.67,0,0,0-8.69-5.75,27.41,27.41,0,0,0-10.19-2.09,23.19,23.19,0,0,0-16.78,6.73,25.88,25.88,0,0,0,.12,34.81,23.63,23.63,0,0,0,17.11,6.85,28.21,28.21,0,0,0,11.36-2.54,29,29,0,0,0,9.86-6.73l2.49-2.61L564,232.44l-1.31,1.37a39.78,39.78,0,0,1-14.24,9.4,46.73,46.73,0,0,1-17.63,3.46c-12.53,0-23.11-4.44-30.69-11.82Zm90.76-80.18H573.41V134.88h20.17v19.78Zm-.13,90.24h-17V164.53h19.66v80.38Zm42.58,0H616.44v-110H636v110Z"/><path class="cls-1" d="M175,44.55a40.84,40.84,0,0,0-12.41,29.71,41.5,41.5,0,0,0,12.41,30,44,44,0,0,0,30.75,12.15,43.53,43.53,0,0,0,30.63-12.21l.16-.16a42.1,42.1,0,0,0-.16-59.53A45.12,45.12,0,0,0,175,44.55Zm47.28,47.08c-.16.16-.32.33-.49.48a23,23,0,0,1-32.56-.48,24.74,24.74,0,0,1-6.59-17.37,24.19,24.19,0,0,1,6.59-17.17h0l.17-.17a23.26,23.26,0,0,1,32.88.23,24.28,24.28,0,0,1,6.66,17.11A24.92,24.92,0,0,1,222.28,91.63Z"/><path class="cls-1" d="M297.46,32.47a33.31,33.31,0,0,0-16.4,4.05,27.23,27.23,0,0,0-6,4.5V34.23H256.38v110h19.73V108.48a27.83,27.83,0,0,0,5.81,4.18,29.85,29.85,0,0,0,14.49,3.72A34.29,34.29,0,0,0,323,104.5c6.33-7.32,10.06-17.64,10.06-30.11s-3.46-22.85-9.67-30.3S308.36,32.47,297.46,32.47ZM307.84,92.1a17.23,17.23,0,0,1-13.65,6.53,16.17,16.17,0,0,1-13-6.34c-3.65-4.58-5.55-11-5.55-17.57,0-8.16,2-14,5.16-18h0a17.35,17.35,0,0,1,13.84-6.39A16.54,16.54,0,0,1,308,56.77c3.26,4.18,5.22,10.31,5.22,17.76S311.17,88.05,307.84,92.1Z"/><path class="cls-1" d="M404.45,90.53a32,32,0,0,1-9.67,5.94,28.59,28.59,0,0,1-10.64,2.15,23.39,23.39,0,0,1-16.46-6.2A22.36,22.36,0,0,1,361.22,79h54l.26-2.29a42.85,42.85,0,0,0,.65-6.4c0-10.71-3.33-20.5-9.72-27.42-6-6.47-14.5-10.39-25.41-10.39-11.62,0-21.81,4.25-29.12,11.82-7,7.32-11.23,17.7-11.23,30.11a41.66,41.66,0,0,0,12.14,30.1h0c7.51,7.44,18,11.88,30.42,11.88A49.77,49.77,0,0,0,400,113.31,42.37,42.37,0,0,0,414.11,105l1.57-1.37-8.82-15.22Zm-36.51-37h0a18.74,18.74,0,0,1,12.72-4.64,14.91,14.91,0,0,1,11.11,4.58,18.15,18.15,0,0,1,4.31,9.86h-34A20.87,20.87,0,0,1,367.94,53.5Z"/><path class="cls-1" d="M440.36,114.62H423.31V34.23h19.27v9.54A33.53,33.53,0,0,1,450,37.5a34.57,34.57,0,0,1,18.29-5c9.6,0,16.71,2.68,21.42,8.1s6.92,13,6.92,23.31v50.74H476.87V67.14c0-4.83-.46-9.14-2.16-12-1.5-2.61-4.37-4.18-9.27-4.18a21,21,0,0,0-15.93,7,26.41,26.41,0,0,0-6.47,18v38.73Z"/><path id="Path_332" data-name="Path 332" class="cls-2" d="M529.12,114.88H512.67V4.26H533V39.78a27.63,27.63,0,0,1,5.3-3.66v-.06a33.58,33.58,0,0,1,15.8-3.92c11,0,19.92,4.31,26.12,11.75s9.73,18,9.73,30.5-3.73,23-10.12,30.37a35.06,35.06,0,0,1-27,11.88,30.89,30.89,0,0,1-15.28-4,32.91,32.91,0,0,1-5.49-4v6.2ZM537.61,57c-3.14,3.85-5.1,9.66-5.1,17.76,0,6.53,1.77,12.93,5.42,17.5h-.06a16.11,16.11,0,0,0,12.93,6.07,17.06,17.06,0,0,0,13.45-6.4c3.2-4,5.22-9.86,5.22-17.37S567.58,61.07,564.31,57a16.28,16.28,0,0,0-13.12-6.34A16.89,16.89,0,0,0,537.61,57Zm71.89,51.78c-4.76-5.29-7.24-13.13-7.24-23.77V33.9h20.3V81.71c0,4.7.46,8.88,2.16,11.68,1.5,2.49,4.24,4,9,4a19.3,19.3,0,0,0,15.15-6.92A28.16,28.16,0,0,0,655.21,72V33.9H675.4v81H655.55v-8.95a37.69,37.69,0,0,1-6.73,5.48,32.83,32.83,0,0,1-18,5.22c-9.27,0-16.46-2.53-21.36-7.89Zm85.42,4.83a38.27,38.27,0,0,1-13.65-8.75l-1.7-1.76,10.19-14.63,2.49,2.42a27.87,27.87,0,0,0,9.14,5.74,30.64,30.64,0,0,0,10.91,2.16,12.69,12.69,0,0,0,7.57-2,5.79,5.79,0,0,0,2.22-4.83c0-4.18-6.34-6.66-13.52-9.47-11.62-4.5-25-9.73-25-25.66a22.12,22.12,0,0,1,8.43-18c5.48-4.37,13.19-6.66,21.48-6.66a45.18,45.18,0,0,1,14.63,2.35,32.82,32.82,0,0,1,11.69,6.73l1.76,1.57L732.8,58.52l-2.74-2.61a23.08,23.08,0,0,0-7.38-4.18A31.45,31.45,0,0,0,713,50a13.16,13.16,0,0,0-7.64,2,5.11,5.11,0,0,0-2.16,4.44c0,4.38,6.47,6.86,13.72,9.6,11.62,4.44,25,9.54,25,25.6a23,23,0,0,1-8.68,18.15c-5.23,4.31-12.61,6.86-21.23,6.86A48.35,48.35,0,0,1,694.92,113.57Zm79.8-88.87H757V4.26h20.71V24.7Zm-.13,90.18H757.21v-81h20.32v81Zm39.18,0H796.46v-81h19.85v8.36a27.28,27.28,0,0,1,3.08-3,29.65,29.65,0,0,1,20.17-7.12c9.73,0,16.92,2.74,21.68,8.23s7,13.19,7,23.51v51H847.92V67.14c0-4.83-.45-9-2.09-11.89h-.07c-1.43-2.48-4.17-4-9-4a18,18,0,0,0-14.3,6.4c-3.73,4.5-5.75,10.9-5.75,18.22v39Zm73.85-10.12a42,42,0,0,1-12.21-30.37c0-12.54,4.25-22.92,11.3-30.3,7.31-7.64,17.63-12,29.32-12,11,0,19.59,4,25.6,10.51,6.46,7,9.79,16.79,9.79,27.63a43.83,43.83,0,0,1-.59,6.46l-.32,2.55H896.57a21.74,21.74,0,0,0,6.33,12.93,23,23,0,0,0,16.2,6.07,28.22,28.22,0,0,0,10.58-2.09,31.41,31.41,0,0,0,9.6-5.87L942,87.91,951,103.58l-1.7,1.63a44.34,44.34,0,0,1-14.17,8.36,49.54,49.54,0,0,1-16.91,3.07c-12.47,0-23.11-4.44-30.62-11.88Zm15.54-51A20.12,20.12,0,0,0,897.49,63h33.23a17.39,17.39,0,0,0-4.17-9.41,14.37,14.37,0,0,0-10.84-4.44,18.19,18.19,0,0,0-12.54,4.58Zm66.42,59.81a38.27,38.27,0,0,1-13.65-8.75l-1.7-1.76,10.2-14.63,2.49,2.42a27.82,27.82,0,0,0,9.13,5.74A30.68,30.68,0,0,0,987,98.75a12.7,12.7,0,0,0,7.58-2,5.82,5.82,0,0,0,2.22-4.83c0-4.18-6.34-6.66-13.53-9.47-11.61-4.5-25-9.73-25-25.66a22.12,22.12,0,0,1,8.43-18c5.49-4.37,13.19-6.66,21.48-6.66a45.14,45.14,0,0,1,14.63,2.35,32.82,32.82,0,0,1,11.69,6.73l1.76,1.57-8.75,15.73-2.75-2.61a23,23,0,0,0-7.37-4.18,31.57,31.57,0,0,0-9.67-1.7A13.18,13.18,0,0,0,980,52a5.1,5.1,0,0,0-2.15,4.44c0,4.38,6.46,6.86,13.71,9.6,11.62,4.44,25,9.54,25,25.6a22.94,22.94,0,0,1-8.69,18.15c-5.22,4.31-12.6,6.86-21.22,6.86a48.56,48.56,0,0,1-17.11-3.07Zm62,0a37.94,37.94,0,0,1-13.59-8.75l-1.76-1.76,10.25-14.63,2.48,2.42a28.38,28.38,0,0,0,9.08,5.74,31,31,0,0,0,11,2.16,12.33,12.33,0,0,0,7.51-2,5.86,5.86,0,0,0,2.28-4.83c0-4.18-6.34-6.66-13.58-9.47-11.56-4.5-25-9.73-25-25.66a22.28,22.28,0,0,1,8.43-18c5.55-4.37,13.19-6.66,21.54-6.66a45.41,45.41,0,0,1,14.63,2.35,33.21,33.21,0,0,1,11.69,6.73l1.7,1.57-8.75,15.73-2.73-2.61a22.42,22.42,0,0,0-7.38-4.18,30.78,30.78,0,0,0-9.6-1.7,13,13,0,0,0-7.64,2,5.1,5.1,0,0,0-2.15,4.44c0,4.38,6.4,6.86,13.71,9.6,11.62,4.44,25,9.54,25,25.6a23,23,0,0,1-8.69,18.15c-5.22,4.31-12.6,6.86-21.29,6.86a49,49,0,0,1-17.11-3.07Z"/><path id="Path_333" data-name="Path 333" class="cls-3" d="M6.85,31.19H125a5.65,5.65,0,0,1,5.62,5.64V200.76a5.71,5.71,0,0,1-5.62,5.7H89.21v-15h26.6V45H25.08L74.63,74V246.68L5.54,206.26a5.69,5.69,0,0,1-4.25-5.5V36.83a5.75,5.75,0,0,1,2.16-4.51h0A5.69,5.69,0,0,1,6.85,31.19ZM54.5,134.43l7.38,4.31v22.2l-7.38-4.38Z"/><path class="cls-1" d="M207.38,296.17a24.2,24.2,0,0,1,9.44,9.49,31.27,31.27,0,0,1,0,28.48,24.2,24.2,0,0,1-9.44,9.49A26.82,26.82,0,0,1,194,347q-10.86,0-16.54-6.85v6.06H162.9V273.61h15.27v25.54q5.78-6.36,15.85-6.36A26.82,26.82,0,0,1,207.38,296.17ZM201,330.52q3.76-4,3.77-10.62T201,309.28a13.71,13.71,0,0,0-19.28,0q-3.77,4-3.77,10.62t3.77,10.62a13.71,13.71,0,0,0,19.28,0Z"/><path class="cls-1" d="M280.72,324.21H240.9a12.38,12.38,0,0,0,5.08,7.73,16.9,16.9,0,0,0,10,2.83,20.11,20.11,0,0,0,7.29-1.22,17.61,17.61,0,0,0,5.92-3.86l8.12,8.8Q269.86,347,255.57,347a34.29,34.29,0,0,1-15.75-3.48,25.42,25.42,0,0,1-10.57-9.64,26.54,26.54,0,0,1-3.72-14A26.92,26.92,0,0,1,229.2,306a25.71,25.71,0,0,1,10.08-9.68,31.17,31.17,0,0,1,28.33-.15,24.35,24.35,0,0,1,9.84,9.54A28.5,28.5,0,0,1,281,320.1Q281,320.39,280.72,324.21ZM245,307.28a12.47,12.47,0,0,0-4.31,8h25.93a12.63,12.63,0,0,0-4.3-8,12.93,12.93,0,0,0-8.62-3A13.11,13.11,0,0,0,245,307.28Z"/><path class="cls-1" d="M324.17,343.68a15.74,15.74,0,0,1-5.53,2.5,28.09,28.09,0,0,1-6.89.83q-9.4,0-14.54-4.8t-5.13-14.09V306.49H284V294.75h8.13V281.93h15.26v12.82h13.11v11.74H307.34v21.43a7.19,7.19,0,0,0,1.71,5.14,6.34,6.34,0,0,0,4.85,1.81,9.82,9.82,0,0,0,6.16-1.95Z"/><path class="cls-1" d="M371.83,298.62q6.56,5.82,6.56,17.56v30H364.1v-6.55Q359.8,347,348.05,347A24.9,24.9,0,0,1,337.53,345a15.71,15.71,0,0,1-6.8-5.67,14.77,14.77,0,0,1-2.35-8.22,13.7,13.7,0,0,1,5.53-11.55q5.54-4.22,17.08-4.21h12.13q0-5-3-7.68c-2-1.8-5.06-2.69-9.1-2.69a26.54,26.54,0,0,0-8.27,1.32,21.83,21.83,0,0,0-6.9,3.57l-5.48-10.67a33.13,33.13,0,0,1,10.32-4.69A46.21,46.21,0,0,1,353,292.79Q365.28,292.79,371.83,298.62Zm-13,36.3a9.91,9.91,0,0,0,4.3-5.33v-5.38H352.65q-9.39,0-9.39,6.16a5.47,5.47,0,0,0,2.3,4.65,10.35,10.35,0,0,0,6.31,1.71A13.29,13.29,0,0,0,358.82,334.92Z"/></svg>